<svg width="100" height="100" viewBox="0 0 100 100" fill="none" xmlns="http://www.w3.org/2000/svg">
  <!-- Orange circle background -->
  <circle cx="50" cy="50" r="50" fill="#FF4500"/>
  
  <!-- White cloud shape -->
  <path d="M25 45C25 40.0294 29.0294 36 34 36C36.3869 36 38.5681 37.0487 40.1056 38.7056C41.9285 37.0487 44.3431 36 47 36C52.5228 36 57 40.4772 57 46C59.7614 46 62 48.2386 62 51C64.7614 51 67 53.2386 67 56C67 58.7614 64.7614 61 62 61H34C29.0294 61 25 56.9706 25 52C25 49.2386 25 47 25 45Z" fill="white"/>
  
  <!-- Red pulse/heartbeat line -->
  <path d="M30 48.5L34 48.5L36 42L38 54L42 42L44 54L46 42L48 54L52 42L54 54L56 42L58 48.5L62 48.5" stroke="#DC2626" stroke-width="2.5" fill="none" stroke-linecap="round" stroke-linejoin="round"/>
</svg>