<svg width="400" height="400" viewBox="0 0 400 400" fill="none" xmlns="http://www.w3.org/2000/svg">
  <!-- Background -->
  <rect width="400" height="400" fill="transparent"/>
  
  <!-- Speech bubble outline -->
  <path d="M80 120 L320 120 Q350 120 350 150 L350 220 Q350 250 320 250 L150 250 L100 290 L130 250 L110 250 Q80 250 80 220 L80 150 Q80 120 110 120 Z" 
        stroke="#FFFFFF" stroke-width="12" fill="none" stroke-linejoin="round"/>
  
  <!-- Analytics chart line -->
  <path d="M120 200 L160 170 L200 180 L240 150 L280 160" 
        stroke="#FFFFFF" stroke-width="8" fill="none" stroke-linecap="round" stroke-linejoin="round"/>
  
  <!-- Chart points -->
  <circle cx="120" cy="200" r="6" fill="#FFFFFF"/>
  <circle cx="160" cy="170" r="6" fill="#FFFFFF"/>
  <circle cx="200" cy="180" r="6" fill="#FFFFFF"/>
  <circle cx="240" cy="150" r="6" fill="#FFFFFF"/>
  <circle cx="280" cy="160" r="6" fill="#FFFFFF"/>
  
  <!-- Orange notification dot -->
  <circle cx="330" cy="100" r="25" fill="#FF6B35"/>
</svg>
