<svg width="200" height="200" viewBox="0 0 200 200" fill="none" xmlns="http://www.w3.org/2000/svg">
  <!-- Main container circle -->
  <circle cx="100" cy="100" r="75" stroke="currentColor" stroke-width="4" fill="none" opacity="0.9"/>
  
  <!-- Three user dots at top (community) -->
  <g transform="translate(100, 50)">
    <circle cx="-25" cy="0" r="8" fill="currentColor" opacity="0.7"/>
    <circle cx="0" cy="0" r="8" fill="currentColor" opacity="0.9"/>
    <circle cx="25" cy="0" r="8" fill="currentColor" opacity="0.7"/>
  </g>
  
  <!-- Pulse wave in center -->
  <path d="M 40 100 L 60 100 L 70 85 L 80 115 L 90 75 L 100 125 L 110 75 L 120 115 L 130 85 L 140 100 L 160 100" 
        stroke="currentColor" 
        stroke-width="4" 
        fill="none" 
        stroke-linecap="round" 
        stroke-linejoin="round"/>
  
  <!-- Peak indicators -->
  <circle cx="90" cy="75" r="3" fill="#FF6B35"/>
  <circle cx="100" cy="125" r="4" fill="#FF6B35"/>
  <circle cx="110" cy="75" r="3" fill="#FF6B35"/>
  
  <!-- Bottom feedback indicators -->
  <g transform="translate(100, 150)" opacity="0.6">
    <rect x="-30" y="0" width="8" height="15" rx="2" fill="currentColor"/>
    <rect x="-15" y="-5" width="8" height="20" rx="2" fill="currentColor"/>
    <rect x="0" y="-2" width="8" height="17" rx="2" fill="currentColor"/>
    <rect x="15" y="-8" width="8" height="23" rx="2" fill="currentColor"/>
    <rect x="30" y="0" width="8" height="15" rx="2" fill="currentColor"/>
  </g>
</svg>

